M48
; DRILL file {KiCad (5.1.5)-2} date 2019-12-29 12:45:35 PM
; FORMAT={-:-/ absolute / inch / decimal}
; #@! TF.CreationDate,2019-12-29T12:45:35-05:00
; #@! TF.GenerationSoftware,Kicad,Pcbnew,(5.1.5)-2
; #@! TF.FileFunction,Plated,1,2,PTH
FMAT,2
INCH
T1C0.0157
T2C0.0394
T3C0.0866
%
G90
G05
T1
X0.0689Y-5.9449
X0.0748Y-5.4075
X0.0768Y-3.7756
X0.0787Y-6.4783
X0.0827Y-4.8425
X0.0846Y-3.2638
X0.0886Y-2.1594
X0.0965Y-4.3012
X0.0965Y-7.5413
X0.0965Y-8.1673
X0.1081Y-1.5798
X0.1201Y-6.9409
X0.1398Y-2.6654
X0.151Y-1.8581
X0.1516Y-1.2788
X0.1594Y-1.1575
X0.1732Y-1.7667
X0.1985Y-4.4939
X0.2006Y-7.191
X0.2047Y-7.7317
X0.217Y-3.4143
X0.2185Y-0.1654
X0.2234Y-1.1417
X0.2234Y-1.2308
X0.2246Y-2.5799
X0.2246Y-6.9058
X0.2618Y-1.3661
X0.2638Y-8.4333
X0.2697Y-0.2539
X0.2756Y-5.7568
X0.2772Y-3.1679
X0.2772Y-5.2307
X0.2772Y-6.2923
X0.2788Y-2.0091
X0.2788Y-4.1509
X0.2984Y-1.484
X0.3031Y-8.5236
X0.3366Y-0.6634
X0.3366Y-1.3297
X0.3366Y-1.4744
X0.3386Y-1.1457
X0.3386Y-1.2303
X0.3543Y-1.6683
X0.3661Y-1.6051
X0.3671Y-0.1575
X0.373Y-0.435
X0.4016Y-0.7106
X0.435Y-1.2323
X0.44Y-5.9537
X0.44Y-7.0364
X0.4409Y-0.4528
X0.4567Y-1.3317
X0.4567Y-1.4843
X0.4567Y-1.5423
X0.4606Y-0.3051
X0.4665Y-3.7559
X0.4685Y-4.8583
X0.4724Y-2.7087
X0.4764Y-8.1378
X0.4862Y-1.2441
X0.4865Y-1.7936
X0.4882Y-2.1673
X0.4882Y-4.2992
X0.4882Y-7.5728
X0.502Y-0.7972
X0.502Y-5.4075
X0.5039Y-6.4902
X0.5079Y-3.2244
X0.5157Y-1.0571
X0.5295Y-1.7028
X0.5374Y-1.2372
X0.5374Y-1.3327
X0.5374Y-1.4823
X0.5374Y-1.5453
X0.5709Y-1.626
X0.5709Y-8.4055
X0.5945Y-0.3543
X0.5965Y-0.2835
X0.6048Y-0.732
X0.6083Y-1.6654
X0.6102Y-0.935
X0.6181Y-1.1437
X0.6497Y-0.3947
X0.6575Y-1.1457
X0.6595Y-0.441
X0.689Y-0.9311
X0.6911Y-1.3297
X0.6927Y-2.9168
X0.6988Y-1.7087
X0.7394Y-8.2707
X0.7441Y-0.1594
X0.7564Y-1.221
X0.7815Y-0.7028
X0.7994Y-1.7682
X0.8071Y-0.189
X0.8162Y-7.3631
X0.8173Y-5.2271
X0.8179Y-2.0447
X0.818Y-6.3085
X0.8228Y-4.1509
X0.8415Y-0.9085
X0.8425Y-0.252
X0.8478Y-6.7405
X0.8516Y-5.6665
X0.8597Y-7.8678
X0.8599Y-4.6484
X0.8603Y-3.5701
X0.8607Y-2.417
X0.8642Y-1.1437
X0.8642Y-1.3504
X0.9711Y-0.5904
X0.9764Y-1.1791
X1.0039Y-0.9587
X1.0039Y-1.2992
X1.0069Y-0.6192
X1.0177Y-1.5315
X1.0335Y-1.3563
X1.0335Y-1.4429
X1.0354Y-0.2303
X1.0394Y-1.2244
X1.0506Y-0.7666
X1.061Y-0.2937
X1.0731Y-1.0228
X1.0786Y-0.5736
X1.0848Y-0.8758
X1.0963Y-0.8364
X1.1004Y-1.4646
X1.1063Y-1.2992
X1.1102Y-1.3465
X1.1378Y-2.6654
X1.1378Y-4.8583
X1.1378Y-6.4843
X1.1417Y-3.2303
X1.1457Y-3.7874
X1.1457Y-5.4035
X1.1457Y-5.9547
X1.1476Y-2.1555
X1.1476Y-4.3445
X1.1496Y-7.5886
X1.1535Y-0.6024
X1.1535Y-0.9862
X1.1535Y-1.9134
X1.1644Y-1.3038
X1.1654Y-7.0236
X1.1713Y-8.56
X1.1752Y-8.1417
X1.1786Y-1.4124
X1.1929Y-0.3012
X1.1969Y-0.5945
X1.1969Y-8.4291
X1.2126Y-0.7205
X1.2539Y-0.7028
X1.2685Y-1.6104
X1.2755Y-2.8738
X1.279Y-5.5719
X1.279Y-6.6527
X1.2831Y-8.2713
X1.3003Y-1.7593
X1.312Y-0.7085
X1.3203Y-0.1788
X1.337Y-0.2773
X1.3373Y-8.446
X1.3374Y-1.6104
X1.3412Y-2.5438
X1.3412Y-7.8984
X1.349Y-0.6949
X1.3503Y-6.2924
X1.3507Y-5.2215
X1.3508Y-4.1531
X1.3509Y-7.3633
X1.3516Y-2.0082
X1.3858Y-0.6811
X1.3925Y-1.4093
X1.3927Y-4.6421
X1.3934Y-3.5526
X1.4311Y-1.1063
X1.4897Y-1.1245
X1.5317Y-1.6215
X1.5374Y-0.7618
X1.5742Y-0.8744
X1.5828Y-1.6626
X1.5906Y-1.0
X1.5942Y-1.1675
X1.5987Y-0.8436
X1.599Y-0.2773
X1.6022Y-8.4874
X1.6102Y-0.6004
X1.6122Y-0.376
X1.6161Y-1.1339
X1.622Y-0.2441
X1.628Y-8.3681
X1.6396Y-0.199
X1.6594Y-8.5
X1.6919Y-0.376
X1.6969Y-0.5335
X1.7146Y-1.2815
X1.7843Y-1.7952
X1.7853Y-7.1911
X1.7868Y-2.8748
X1.7965Y-1.6215
X1.8061Y-8.2709
X1.8264Y-1.6626
X1.8288Y-6.4206
X1.874Y-2.5444
X1.874Y-3.6154
X1.874Y-4.6855
X1.874Y-6.8279
X1.8872Y-5.2207
X1.8879Y-6.3095
X1.8903Y-4.1509
X1.8979Y-1.4727
X1.9178Y-5.6659
X1.9262Y-7.8615
X1.935Y-0.2224
X1.9558Y-1.3051
X2.0729Y-1.6215
X2.0945Y-1.1657
X2.1091Y-0.1703
X2.1122Y-8.498
X2.1772Y-0.5413
X2.1811Y-1.0728
X2.1969Y-8.1122
X2.2185Y-3.7638
X2.2205Y-3.2126
X2.2264Y-7.0217
X2.2283Y-2.622
X2.2303Y-4.3268
X2.2303Y-4.8563
X2.2303Y-5.4134
X2.2347Y-1.4666
X2.2362Y-7.5748
X2.2382Y-2.1732
X2.2382Y-5.9232
X2.2441Y-1.6673
X2.2461Y-6.4783
X2.2774Y-7.9687
X2.2995Y-2.9186
X2.2996Y-1.8394
X2.2999Y-2.379
X2.3051Y-1.6201
X2.3071Y-8.1497
X2.3545Y-4.4932
X2.374Y-0.4744
X2.4068Y-0.9376
X2.4068Y-7.8988
X2.4072Y-1.2825
X2.4109Y-8.4332
X2.4242Y-6.2923
X2.4251Y-7.3637
X2.4252Y-5.2208
X2.4272Y-0.6378
X2.4279Y-0.4024
X2.4338Y-4.1508
X2.4459Y-6.7408
X2.4459Y-3.5279
X2.4491Y-5.6674
X2.4925Y-0.224
X2.626Y-1.065
X2.6319Y-8.4902
X2.6634Y-0.2776
X2.6969Y-3.2106
X2.6969Y-3.7756
X2.7028Y-5.9291
X2.7087Y-5.3917
X2.7165Y-7.0079
X2.7205Y-4.3031
X2.7244Y-4.8563
X2.7343Y-2.6575
X2.7343Y-7.5866
X2.7402Y-6.5236
X2.7421Y-2.1811
X2.7461Y-8.122
X2.7953Y-1.6398
X2.8218Y-0.2205
X2.8218Y-2.3702
X2.836Y-5.6168
X2.8481Y-0.7193
X2.87Y-8.2501
X2.8708Y-7.1917
X2.8728Y-2.8749
X2.8904Y-2.0436
X2.9163Y-8.0224
X2.9205Y-8.0725
X2.9474Y-1.4736
X2.9615Y-6.3057
X2.963Y-5.2219
X2.9646Y-4.1512
X2.9708Y-8.4342
X2.9783Y-0.4291
X2.9802Y-3.4487
X2.9802Y-4.52
X2.9802Y-6.6625
X3.0022Y-7.9372
X3.026Y-0.2205
X3.1257Y-1.0987
X3.1772Y-0.2146
X3.187Y-8.5138
X3.248Y-8.0217
X3.2598Y-7.5709
X3.2657Y-8.4114
X3.2717Y-5.937
X3.2756Y-6.4823
X3.2776Y-4.3268
X3.2776Y-4.8425
X3.2815Y-2.1614
X3.2815Y-5.4055
X3.2835Y-3.7795
X3.2894Y-2.7047
X3.2894Y-3.2323
X3.2913Y-7.0217
X3.3226Y-0.188
X3.3465Y-1.6476
X3.3731Y-1.2997
X3.3741Y-8.315
X3.431Y-8.1235
X3.4608Y-2.5489
X3.4724Y-2.0087
X3.4724Y-3.0827
X3.4866Y-4.1509
X3.4876Y-0.938
X3.4988Y-7.3641
X3.4991Y-4.6854
X3.4991Y-5.7573
X3.4991Y-6.8271
X3.5158Y-3.6037
X3.5158Y-5.2098
X3.5158Y-6.2798
X3.5238Y-7.8565
X3.5284Y-0.2205
X3.5284Y-7.9013
X3.5354Y-0.4311
X3.5377Y-8.4409
X3.6628Y-1.1069
X3.7461Y-0.2323
X3.7461Y-1.6693
X3.7559Y-8.3878
X3.7717Y-8.1063
X3.7756Y-7.0315
X3.7835Y-5.9528
X3.7894Y-3.8031
X3.7894Y-4.3307
X3.7894Y-6.4843
X3.7953Y-2.1437
X3.7953Y-4.8465
X3.7972Y-5.3996
X3.7972Y-7.7264
X3.8051Y-2.6929
X3.813Y-3.2402
X3.9437Y-8.1235
X3.9539Y-8.2712
X3.9647Y-6.6527
X3.9647Y-7.1922
X3.9812Y-0.4027
X3.9886Y-1.4725
X3.9926Y-2.5483
X3.9938Y-3.6285
X3.9964Y-4.7075
X4.0483Y-0.7601
X4.0483Y-1.8394
X4.0483Y-2.9152
X4.0483Y-4.1393
X4.0513Y-7.3481
X4.0542Y-5.1249
X4.0569Y-7.8427
X4.0577Y-6.2277
X4.0615Y-5.6168
X4.0628Y-8.4651
X4.0805Y-7.9013
X4.1033Y-0.2205
X4.2133Y-0.5533
X4.2441Y-1.124
X4.2638Y-7.5866
X4.2776Y-8.0118
X4.2913Y-0.2283
X4.2992Y-2.6929
X4.3031Y-8.4055
X4.3071Y-4.8661
X4.3071Y-5.9547
X4.3071Y-7.0354
X4.311Y-3.7835
X4.315Y-2.1772
X4.3189Y-1.685
X4.3189Y-3.2323
X4.3209Y-4.3012
X4.3209Y-6.4843
X4.3287Y-5.3917
X4.437Y-0.1777
X4.4472Y-8.315
X4.4977Y-0.6796
X4.5297Y-0.402
X4.5349Y-1.474
X4.5381Y-0.9377
X4.5381Y-2.552
X4.5381Y-3.631
X4.5381Y-4.7101
X4.5381Y-5.7876
X4.5381Y-7.945
X4.5381Y-8.2591
X4.5442Y-1.8002
X4.5442Y-2.8789
X4.5442Y-3.9579
X4.5728Y-7.3596
X4.5826Y-8.4633
X4.5893Y-5.0787
X4.5893Y-6.1575
X4.5897Y-6.6969
X4.5936Y-8.0
X4.7933Y-1.0787
X4.7933Y-8.0531
X4.8228Y-7.5866
X4.8327Y-1.6398
X4.8346Y-5.9429
X4.8366Y-3.1398
X4.8386Y-3.7835
X4.8386Y-7.0354
X4.8425Y-2.7205
X4.8465Y-0.2362
X4.8465Y-4.874
X4.8504Y-4.315
X4.8524Y-6.4843
X4.8602Y-2.1496
X4.8622Y-5.4075
X4.8622Y-8.3563
X5.0285Y-8.1306
X5.0549Y-0.4032
X5.0629Y-1.4725
X5.0664Y-2.5488
X5.0689Y-3.6278
X5.0709Y-2.0097
X5.0709Y-2.7075
X5.0709Y-4.7072
X5.1111Y-0.8503
X5.1128Y-7.8094
X5.1175Y-8.3402
X5.1222Y-6.247
X5.126Y-6.7724
X5.1295Y-2.9186
X5.1295Y-3.9979
X5.1295Y-5.0772
X5.1331Y-7.1936
X5.1356Y-5.6168
X5.1536Y-7.9013
X5.1978Y-0.3954
X5.3189Y-7.5118
X5.3468Y-0.5533
X5.3543Y-7.692
X5.3622Y-3.7795
X5.3622Y-4.8583
X5.3622Y-6.4705
X5.3701Y-7.0295
X5.378Y-2.1417
X5.3799Y-0.2323
X5.3839Y-4.2992
X5.3858Y-5.9311
X5.3898Y-5.3701
X5.3917Y-2.6988
X5.4016Y-3.2323
X5.4114Y-1.1043
X5.4528Y-8.122
X5.4779Y-7.4903
X5.4862Y-1.6516
X5.5221Y-8.315
X5.5914Y-7.7202
X5.6037Y-0.4017
X5.6037Y-0.9377
X5.6037Y-1.4737
X5.6037Y-7.96
X5.642Y-6.7409
X5.6421Y-2.4564
X5.6464Y-3.5226
X5.6483Y-8.4409
X5.6549Y-6.2309
X5.6553Y-4.0932
X5.6554Y-7.309
X5.6555Y-3.0154
X5.6555Y-5.1733
X5.6561Y-4.6179
X5.6676Y-5.6968
X5.6777Y-7.9013
X5.6862Y-1.7763
X5.7442Y-0.6778
X5.7727Y-0.4133
X5.872Y-7.4803
X5.876Y-2.6831
X5.876Y-5.3898
X5.8898Y-6.4547
X5.8917Y-4.3012
X5.9016Y-4.8583
X5.9016Y-5.9587
X5.9055Y-3.2402
X5.9055Y-8.1437
X5.9075Y-3.7677
X5.9075Y-7.0236
X5.9094Y-1.6516
X5.9173Y-0.2303
X5.9232Y-2.1555
X5.9272Y-1.0827
X6.0587Y-0.2244
X6.0587Y-7.7756
X6.0598Y-8.315
X6.083Y-0.3985
X6.1148Y-7.1889
X6.1166Y-1.6344
X6.1206Y-3.9453
X6.1365Y-0.9377
X6.1365Y-1.4727
X6.1365Y-2.0123
X6.1365Y-2.5514
X6.1365Y-3.0912
X6.1365Y-3.6309
X6.1365Y-4.7091
X6.1365Y-5.7881
X6.1365Y-7.9799
X6.2096Y-5.0273
X6.2101Y-6.111
X6.2111Y-6.6967
X6.2116Y-8.4409
X6.2216Y-7.9016
X6.4075Y-0.2146
X6.4429Y-7.5591
X6.4429Y-8.1634
X6.4449Y-7.0295
X6.4508Y-2.7185
X6.4508Y-3.7913
X6.4528Y-3.2598
X6.4547Y-4.8898
X6.4606Y-5.9252
X6.4606Y-6.498
X6.4626Y-4.3307
X6.4665Y-2.185
X6.4665Y-5.3917
X6.5157Y-1.0669
X6.5315Y-1.6535
X6.5508Y-0.188
X6.5961Y-8.315
X6.5963Y-7.2357
X6.5964Y-3.9979
X6.597Y-5.0772
X6.5972Y-6.1564
X6.6292Y-0.6778
X6.6693Y-0.4026
X6.6693Y-1.4737
X6.6693Y-2.0087
X6.6693Y-2.5493
X6.6693Y-3.0886
X6.6693Y-3.6287
X6.6693Y-4.7081
X6.6693Y-6.8689
X6.6927Y-8.1235
X6.702Y-5.8098
X6.7072Y-0.8504
X6.7287Y-7.7753
X6.7355Y-7.9264
X6.7523Y-8.4331
X6.9311Y-0.2106
X6.9665Y-1.002
X7.002Y-3.7972
X7.0059Y-7.0118
X7.0079Y-5.3681
X7.0079Y-5.939
X7.0138Y-4.3366
X7.0138Y-8.1378
X7.0177Y-4.8484
X7.0177Y-6.5039
X7.0217Y-7.5925
X7.0256Y-1.6614
X7.0256Y-2.2008
X7.0295Y-3.2382
X7.04Y-0.188
X7.0433Y-2.7008
X7.1617Y-7.5043
X7.1873Y-7.984
X7.2004Y-7.1855
X7.2021Y-0.4018
X7.2021Y-1.473
X7.2021Y-2.0107
X7.2021Y-2.5496
X7.2021Y-3.6283
X7.2021Y-4.7085
X7.2021Y-5.7868
X7.2021Y-8.4856
X7.2263Y-2.875
X7.2411Y-6.7409
X7.2431Y-5.0565
X7.2436Y-3.9858
X7.2436Y-6.1272
X7.2472Y-0.8437
X7.2679Y-8.4397
X7.3082Y-0.9042
X7.3115Y-7.8988
X7.3484Y-4.3366
X7.3701Y-3.7913
X7.374Y-4.8583
X7.3839Y-7.0118
X7.3937Y-1.6516
X7.3937Y-5.4154
X7.3937Y-5.9606
X7.4094Y-7.5591
X7.4724Y-2.185
X7.4764Y-1.0787
X7.4764Y-3.2657
X7.4803Y-2.6949
X7.4823Y-6.5039
X7.4902Y-8.0807
X7.5098Y-0.2244
X7.6702Y-5.6168
X7.6824Y-8.1235
X7.7349Y-0.4023
X7.7349Y-1.4737
X7.7349Y-2.5498
X7.7349Y-3.6279
X7.7544Y-0.4392
X7.7544Y-0.5093
X7.7779Y-6.2036
X7.778Y-0.8454
X7.778Y-8.3513
X7.7788Y-7.272
X7.7793Y-4.5931
X7.7797Y-5.1278
X7.7868Y-6.6961
X7.7871Y-1.8394
X7.7871Y-2.9186
X7.7871Y-3.9979
X7.7882Y-7.7753
X7.814Y-8.0963
X7.9967Y-8.4734
X8.0157Y-7.5512
X8.0354Y-1.6457
X8.0374Y-5.4075
X8.0433Y-6.5177
X8.0472Y-7.0354
X8.0492Y-4.874
X8.0531Y-2.7106
X8.0551Y-3.8228
X8.0571Y-4.3031
X8.0571Y-5.9606
X8.061Y-3.2677
X8.063Y-1.1083
X8.0728Y-0.3543
X8.0768Y-2.1772
X8.1201Y-8.1654
X8.2071Y-5.0772
X8.2073Y-3.9979
X8.2073Y-1.8394
X8.2073Y-6.1564
X8.2078Y-1.2997
X8.2192Y-7.1956
X8.2501Y-8.1235
X8.2635Y-7.5882
X8.2677Y-0.4025
X8.2677Y-0.9396
X8.2677Y-2.5498
X8.2677Y-3.0881
X8.2677Y-3.6277
X8.2677Y-4.707
X8.2677Y-5.7876
X8.2677Y-6.8658
X8.3195Y-7.7753
X8.3199Y-8.3814
X8.3308Y-0.2205
X8.376Y-0.3209
X8.4971Y-8.127
X8.5858Y-0.6926
T2
X0.437Y-0.0827
X0.537Y-0.0827
X0.637Y-0.0827
X0.737Y-0.0827
X0.837Y-0.0827
X0.937Y-0.0827
X1.037Y-0.0827
X1.137Y-0.0827
X0.0827Y-0.3567
X0.0827Y-0.4567
X0.0827Y-1.6378
X0.0827Y-1.7378
X0.0827Y-0.6976
X0.0827Y-0.7976
X0.0827Y-0.8976
X0.0827Y-0.9976
X0.0827Y-1.0976
X0.0827Y-1.1976
X0.0827Y-1.2976
X0.0827Y-1.3976
X1.3937Y-0.0827
X1.4937Y-0.0827
T3
X8.563Y-8.563
X8.563Y-0.0984
X0.0984Y-0.0984
X0.0984Y-8.563
T0
M30
